<svg aria-hidden="true" style="position: absolute; width: 0; height: 0; overflow: hidden;" version="1.1" xmlns="http://www.w3.org/2000/svg" xmlns:xlink="http://www.w3.org/1999/xlink">
<defs>
<symbol id="facebook" viewBox="0 0 17 32">
<title>facebook</title>
<path d="M4.794 32v-14.313h-4.794v-5.688h4.794v-4.481c0-4.869 2.975-7.519 7.319-7.519 2.081 0 3.869 0.156 4.387 0.225v5.088h-3.012c-2.363 0-2.819 1.125-2.819 2.769v3.919h5.331l-0.731 5.688h-4.6v14.313z"></path>
</symbol>
<symbol id="instagram" viewBox="0 0 28 32">
<title>instagram</title>
<path d="M14.006 8.813c-3.975 0-7.181 3.206-7.181 7.181s3.206 7.181 7.181 7.181 7.181-3.206 7.181-7.181-3.206-7.181-7.181-7.181zM14.006 20.663c-2.569 0-4.669-2.094-4.669-4.669s2.094-4.669 4.669-4.669 4.669 2.094 4.669 4.669-2.1 4.669-4.669 4.669zM23.156 8.519c0 0.931-0.75 1.675-1.675 1.675-0.931 0-1.675-0.75-1.675-1.675s0.75-1.675 1.675-1.675 1.675 0.75 1.675 1.675zM27.913 10.219c-0.106-2.244-0.619-4.231-2.262-5.869-1.637-1.638-3.625-2.15-5.869-2.263-2.313-0.131-9.244-0.131-11.556 0-2.237 0.106-4.225 0.619-5.869 2.256s-2.15 3.625-2.263 5.869c-0.131 2.313-0.131 9.244 0 11.556 0.106 2.244 0.619 4.231 2.263 5.869s3.625 2.15 5.869 2.262c2.313 0.131 9.244 0.131 11.556 0 2.244-0.106 4.231-0.619 5.869-2.262 1.637-1.637 2.15-3.625 2.262-5.869 0.131-2.313 0.131-9.238 0-11.55zM24.925 24.25c-0.488 1.225-1.431 2.169-2.663 2.663-1.844 0.731-6.219 0.563-8.256 0.563s-6.419 0.163-8.256-0.563c-1.225-0.488-2.169-1.431-2.663-2.663-0.731-1.844-0.563-6.219-0.563-8.256s-0.163-6.419 0.563-8.256c0.487-1.225 1.431-2.169 2.663-2.662 1.844-0.731 6.219-0.563 8.256-0.563s6.419-0.162 8.256 0.563c1.225 0.487 2.169 1.431 2.663 2.662 0.731 1.844 0.563 6.219 0.563 8.256s0.169 6.419-0.563 8.256z"></path>
</symbol>
<symbol id="pinterest" viewBox="0 0 24 32">
<title>pinterest</title>
<path d="M12.75 0.406c-6.412 0-12.75 4.275-12.75 11.194 0 4.4 2.475 6.9 3.975 6.9 0.619 0 0.975-1.725 0.975-2.212 0-0.581-1.481-1.819-1.481-4.238 0-5.025 3.825-8.588 8.775-8.588 4.256 0 7.406 2.419 7.406 6.862 0 3.319-1.331 9.544-5.644 9.544-1.556 0-2.887-1.125-2.887-2.738 0-2.363 1.65-4.65 1.65-7.088 0-4.138-5.869-3.388-5.869 1.613 0 1.050 0.131 2.213 0.6 3.169-0.862 3.712-2.625 9.244-2.625 13.069 0 1.181 0.169 2.344 0.281 3.525 0.213 0.238 0.106 0.212 0.431 0.094 3.15-4.313 3.037-5.156 4.463-10.8 0.769 1.462 2.756 2.25 4.331 2.25 6.637 0 9.619-6.469 9.619-12.3 0-6.206-5.363-10.256-11.25-10.256z"></path>
</symbol>
<symbol id="twitter" viewBox="0 0 32 32">
<title>twitter</title>
<path d="M28.711 9.482c0.020 0.284 0.020 0.569 0.020 0.853 0 8.67-6.599 18.66-18.66 18.66-3.716 0-7.168-1.076-10.071-2.944 0.528 0.061 1.036 0.081 1.584 0.081 3.066 0 5.888-1.035 8.142-2.802-2.883-0.061-5.3-1.949-6.132-4.548 0.406 0.061 0.812 0.102 1.239 0.102 0.589 0 1.178-0.081 1.726-0.223-3.005-0.609-5.259-3.249-5.259-6.437v-0.081c0.873 0.487 1.888 0.792 2.964 0.832-1.766-1.178-2.924-3.188-2.924-5.462 0-1.218 0.325-2.335 0.893-3.31 3.228 3.98 8.081 6.579 13.523 6.863-0.101-0.487-0.162-0.995-0.162-1.502 0-3.614 2.924-6.558 6.558-6.558 1.888 0 3.594 0.792 4.792 2.071 1.482-0.284 2.904-0.832 4.162-1.584-0.487 1.523-1.523 2.802-2.883 3.614 1.32-0.142 2.599-0.508 3.777-1.015-0.893 1.299-2.010 2.457-3.289 3.391z"></path>
</symbol>
</defs>
</svg>
